<svg viewBox="0 0 860 116" width="860" height="116" xmlns="http://www.w3.org/2000/svg">
  <style>
    .font-title {
      font-family: -apple-system, BlinkMacSystemFont, "SF Pro Display", "SF Pro Text", "Segoe UI", "PingFang SC", "Hiragino Sans GB", "Microsoft YaHei", sans-serif;
      font-weight: 700;
      letter-spacing: -0.6px;
      text-rendering: optimizeLegibility;
      -webkit-font-smoothing: antialiased;
    }
    .font-slogan {
      font-family: -apple-system, BlinkMacSystemFont, "SF Pro Display", "SF Pro Text", "Segoe UI", "PingFang SC", "Hiragino Sans GB", "Microsoft YaHei", sans-serif;
      font-weight: 600;
      letter-spacing: -0.2px;
      text-rendering: optimizeLegibility;
      -webkit-font-smoothing: antialiased;
    }
  </style>

  <g transform="translate(430, 48)">
    <g transform="translate(-188, -26) scale(1.05)">
      <path d="M12 4C6.5 4 2 8.5 2 14c0 6.6 4.4 12 10 12s10-5.4 10-12c0-5.5-4.5-10-10-10zm-3 8c.8 0 1.5.7 1.5 1.5S9.8 15 9 15s-1.5-.7-1.5-1.5S8.2 12 9 12zm6 0c.8 0 1.5.7 1.5 1.5s-.7 1.5-1.5 1.5-1.5-.7-1.5-1.5.7-1.5 1.5-1.5zm-3 8.5c-2.3 0-4.3-1.4-4.8-3.5h9.6c-.5 2.1-2.5 3.5-4.8 3.5z" fill="#475569" />
      <path d="M26 10c-.5 0-1 .1-1.5.2.8 1.4 1.3 3.1 1.3 5 0 2.8-1 5.3-2.6 7.2 1.3 1.1 2.8 1.6 4.4 1.6 4.6 0 8.4-4.5 8.4-10 0-4.6-3.8-8.4-8.4-8.4zm-1.5 6.5c.6 0 1 .4 1 1s-.4 1-1 1-1-.4-1-1 .4-1 1-1zm4.8 0c.6 0 1 .4 1 1s-.4 1-1 1-1-.4-1-1 .4-1 1-1zm-3.8 6c.4-1.2 1.5-2 2.8-2s2.4.8 2.8 2h-5.6z" fill="#64748b" opacity="0.85" />
    </g>
    <text x="-144" y="2" class="font-title" font-size="36" fill="#334155">dsh-adult-tension</text>
  </g>

  <text x="430" y="98" class="font-slogan" font-size="20.5" fill="#334155" text-anchor="middle">
    Tailored for High-Tension, Persistent Mature Interactive Storytelling
  </text>
</svg>